<?xml version="1.0" encoding="UTF-8"?><svg xmlns="http://www.w3.org/2000/svg" xmlns:xlink="http://www.w3.org/1999/xlink" viewBox="0 0 126.98 114.56"><defs><style>.e{isolation:isolate;}.f{fill:#187bcd;}.g{fill:#ffe013;}.h{fill:url(#d);}.i{fill:#fff;mix-blend-mode:screen;opacity:.39;}</style><linearGradient id="d" x1="0" y1="57.28" x2="126.98" y2="57.28" gradientTransform="matrix(1, 0, 0, 1, 0, 0)" gradientUnits="userSpaceOnUse"><stop offset="0" stop-color="#187bcd"/><stop offset=".3" stop-color="#2a9df4"/><stop offset="1" stop-color="#004393"/></linearGradient></defs><g class="e"><g id="a"/><g id="b"><g id="c"><g><path class="h" d="M89.76,0H37.22C16.66,0,0,16.66,0,37.22v20.4c0,20.56,16.66,37.22,37.22,37.22h29.42l7.15,17.65c1.05,2.6,4.66,2.8,6,.33l9.74-17.99h.23c20.56,0,37.22-16.66,37.22-37.22v-20.4C126.98,16.66,110.32,0,89.76,0Z"/><path class="i" d="M38.27,3.45C20.65,3.45,6.1,16.62,3.94,33.65c-.12,.96,1.18,1.4,1.66,.56,2.21-3.84,6.5-10.08,13.85-16.46,7.55-6.56,15.21-10.55,19.8-12.59,.88-.39,.6-1.71-.37-1.71h-.61Z"/><path class="g" d="M35.54,33.17c-6.19-.25-12.17,3.02-15.19,8.73h0c-4.8,9.07-.21,20.24,9.56,23.37,6.94,2.22,14.05,3.74,21.23,4.55,.09,0,.15,.09,.14,.18-.42,3.74-.83,7.48-1.25,11.22-.01,.12,.11,.21,.22,.17,7.78-3.03,14.92-6.81,21.32-11.15,.02-.02,.05-.02,.08-.03,8.58-.64,17.11-2.28,25.4-4.93,9.79-3.13,14.41-14.3,9.6-23.38h0c-3.02-5.71-8.99-8.97-15.19-8.73H35.54Z"/><circle class="f" cx="40.76" cy="51.18" r="6.59" transform="translate(-22.74 35.42) rotate(-37.53)"/><circle class="f" cx="62.41" cy="51.18" r="6.59" transform="translate(1.86 104.55) rotate(-80.75)"/><circle class="f" cx="84.07" cy="51.18" r="6.59" transform="translate(20.03 125.93) rotate(-80.75)"/></g></g></g></g></svg>